<svg xmlns="http://www.w3.org/2000/svg" xmlns:xlink="http://www.w3.org/1999/xlink" x="0px" y="0px" viewBox="0 0 576 576" style="enable-background:new 0 0 576 576;" xml:space="preserve">
<style type="text/css">
	.st0{stroke:#FFFFFF;stroke-miterlimit:10;}
	.st1{fill:none;}
	.st2{font-family:'CourierNewPSMT';}
	.st3{font-size:30.2327px;}
	.st4{fill:#FFFFFF;stroke:#84C441;stroke-width:1.5;stroke-linecap:round;stroke-linejoin:round;stroke-miterlimit:10;}
	.st5{fill:none;stroke:#84C441;stroke-miterlimit:10;}
</style>
<g id="SHAPE">
	
		<rect x="90.19" y="80.37" transform="matrix(-1 -1.224647e-16 1.224647e-16 -1 408.5567 326.7747)" class="st0" width="228.18" height="166.04"></rect>
	
		<rect x="97.53" y="87.68" transform="matrix(-1 -1.224647e-16 1.224647e-16 -1 423.2446 341.3967)" class="st0" width="228.18" height="166.04"></rect>
	
		<rect x="104.81" y="94.91" transform="matrix(-1 -1.224647e-16 1.224647e-16 -1 437.8017 355.8691)" class="st0" width="228.18" height="166.04"></rect>
	
		<rect x="112.23" y="102.37" transform="matrix(-1 -1.224647e-16 1.224647e-16 -1 452.6375 370.7896)" class="st0" width="228.18" height="166.04"></rect>
	
		<rect x="119.5" y="109.61" transform="matrix(-1 -1.224647e-16 1.224647e-16 -1 467.1946 385.262)" class="st0" width="228.18" height="166.04"></rect>
	<rect x="309.54" y="292.21" class="st1" width="238.26" height="54.71"></rect>
	<text transform="matrix(1 0 0 1 309.5387 310.7402)" class="st2 st3">nälij_data</text>
</g>
<g id="COLOR">
	<path class="st4" d="M311.06,263.2c1.11,1.6,2.74,2.8,4.31,4.06l0.01-0.01l0.24-0.36c0.26-0.52,0.77-1.05,0.74-1.56   c-0.42-8.06,2.33-15.64,3.35-23.47c0.32-2.48,0.61-5.1-0.27-7.95l0-0.03l1.21,0.19l1.05,0.66l1.05,0.36l1.47,0.55   c-1.01-1.82-0.46-3.93-1.41-5.93c-1.38-2.93-1.9-6.31-0.99-9.71c0.33-1.22,0.44-2.74-0.02-3.87c-1.75-4.36-0.48-8.93-1.22-13.29   c-0.48-2.86,0.85-6.07-1.44-8.61l-0.51-0.52l0.01-0.03c3.31-7.1,3.15-10.68-1.01-17.06c-2.4-3.69-5.98-6.46-7.86-10.51l-0.14-0.47   l-0.01-0.01c0.51-0.14,0.97-0.45,1.31-1.08l0.14-0.36l-0.01-0.01c-0.03-0.02-0.06-0.04-0.08-0.06c-2.91-3.47-6.87-5.81-9.53-9.65   c-3.05-4.39-7.07-8.01-11.58-11.06c-2.93-1.98-6.49-2.37-9.4-4.25l-0.52-0.39l-0.29-0.25l0.01-0.01c0.42-0.84,0.28-1.67-1.16-2.04   c-7.43-1.89-13.85-6.72-21.49-7.7c-2.71-0.35-6.17-1.68-8.57,1.4l-0.29,0.39l-0.01,0c-1.02-0.89-2.09-1.68-3.27-2.22   c-3.39-1.54-6.45-5.11-10.88-2.85l-0.66,0.35l-0.42,0.24l-0.01-0.01c-1.21-1.16-2.66-1.81-4.39-2.04c-2.88-0.37-5.8-0.33-8.63,1.37   c-3.62,2.18-7.45,3.97-10.48,7l-0.01,0.01c-2.83,0.63-4.98,2.62-7.17,4.73c-2.62,2.52-5.4,4.87-8.92,5.3l-0.01,0.01   c-0.48,0.01-0.98,0.1-1.46,0.28c-7.35,2.73-12.68,7.34-15.39,15.14c-1.83,5.27-1.49,11.47-6.09,15.69   c-0.4,0.37-0.83,1.06-0.76,1.54c1.35,9.17-1.39,18.21-0.83,27.35c0.02,0.39,0,0.78,0,1.17l0.4,0.19l-0.01-0.01   c-0.06,0.03-0.13,0.06-0.19,0.09c-1.38,10.26,2.43,19.66,4.1,29.41l1.12-0.58l1.59-1.05l1.59-1.11c3.6,4.12,2.46,9.36,2.99,14.08   c1.02,9.11,2.64,18.03,6.04,26.53c3.46,8.67,7.05,17.3,10.96,25.77c2.72,5.89,5.3,12,10.6,15.97l0,0l-0.3,0.45l-0.21,0.41   c-1,1.77,0.38,4.05,0.92,4.52c0.28,0.24,0.55,0.49,0.8,0.75l0.02,0.01l0,0l-0.58,0.19c-2.88,1.1-4.48,3.31-4.63,6.25   c-0.18,3.43-1.12,6.75-1.02,10.24l0.01,0l-1.78,1.08c-9.3,13.57-21.86,23.94-33.96,34.79c-7.27,6.52-14.36,13.24-21.5,19.91   c-2.43,2.27-4.74,4.64-7.38,6.69c-2.53,1.97-1.89,4.13,1.1,5.83c2.19,1.25,4.15,2.88,6.28,4.25c4.93,3.16,9.77,6.48,14.86,9.34   c10.52,5.91,18.55,14.41,25.79,23.85c2.73,3.56,6.43,6.43,10.21,8.45c8.76,4.66,13.66,12.46,18.18,20.53   c4.46,7.97,8.02,16.43,12.28,24.52c1.59,3.01,4.59,4.95,7.76,6.23c1.7,0.69,4.64-2.25,4.62-4.63c-0.01-2.44,0.26-4.78,1.22-7.03   c0.58-1.37,0.46-2.71,0.22-4.08l0,0.01l1.68-0.36c2.93-0.68,5.84-1.2,8.9-1.28c1.9-0.05,4.19,0.41,5.87-0.03l-0.07,0.09   c1.36,0,3.07,0.49,4.01-0.09c3.27-2.03,7.13-2.76,10.46-4.56c16.43-8.87,33.05-17.47,49.18-26.78c4.68-2.7,10-5.65,12.58-10.48   c1.47-2.76,3.12-5.18,5.15-7.53c8.21-9.55,14.97-20.06,22.63-29.98c0.94-1.22,0.91-2.54,0.01-3.79   c-3.76-5.22-7.34-10.55-11.35-15.6c-6.34-8-15.05-13.59-23.46-19.48c-8.6-6.03-17.14-12.15-25.68-18.26l-0.23-0.09   c0.05-2.44,0.18-4.88,0.17-7.32c-0.04-6.9-1.2-13.82-0.96-20.7c0.35-9.9,0.06-19.8,0.28-29.69c0.05-2.35-0.5-5.13,0.56-6.93   c0.36-0.61,0.58-1.15,0.69-1.64l0.3-0.03c2.32-0.66,2.94,2.84,5.27,2.22c0.52-6.52,1.26-12.94,3.72-19.01l0.51-0.92"></path>
</g>
<g id="HEAD">
	<g>
		<path class="st5" d="M201.18,336.79c-9.3,13.57-21.86,23.94-33.96,34.79c-7.27,6.52-14.36,13.24-21.5,19.91    c-2.43,2.27-4.74,4.64-7.38,6.69c-2.53,1.97-1.89,4.13,1.1,5.83c2.19,1.25,4.15,2.88,6.28,4.25c4.93,3.16,9.77,6.48,14.86,9.34    c10.52,5.91,18.55,14.41,25.79,23.85c2.73,3.56,6.43,6.43,10.21,8.45c8.76,4.66,13.66,12.46,18.18,20.53    c4.46,7.97,8.02,16.43,12.28,24.52c1.59,3.01,4.59,4.95,7.76,6.23c1.7,0.69,4.64-2.25,4.62-4.63c-0.01-2.44,0.26-4.78,1.22-7.03    c0.72-1.7,0.37-3.36,0.02-5.08c-1.3-6.44-3.84-12.9-1.52-19.5c2.28-6.5,2.33-13.35,3.86-19.94c1.08-4.66,2.25-9.29,2.71-14.07"></path>
		<path class="st5" d="M299.61,253.58c1.46,7.01,0.08,14.07,0.37,21.09c0.03,0.64-0.02,1.52-0.4,1.92    c-6.19,6.43-10.41,14.44-16.75,20.74c-8.21,8.16-17.72,13.89-28.88,17.3c-8.99,2.74-17.94,4.75-27.38,4.61    c-5.52-0.08-10.39-2.04-15.24-4.33c-7.71-3.64-10.76-10.98-14-18c-3.91-8.47-7.5-17.1-10.96-25.77c-3.4-8.5-5.02-17.42-6.04-26.53    c-0.53-4.71,0.62-9.96-2.99-14.08c1.7-4.61-2.9-9.55,0.74-14.1c0.32-0.4,0.04-1.27,0.04-1.92"></path>
		<path class="st5" d="M214.07,222.33c2.16,10.67-2.1,20.6-3.53,30.86c-0.13,0.93-0.58,1.81-0.75,2.74    c-1.58,8.56,3.06,10.35,8.93,9.17c3.35-0.67,6.35-0.16,9.4,0.32c2.22,0.35,4.22,0.2,5.83-0.97c4.04-2.92,3.08-7.76-1.91-10.49"></path>
		<path class="st5" d="M241.91,485.22c2.94-0.68,5.87-1.2,8.94-1.28c1.91-0.05,4.21,0.41,5.9-0.03l-0.07,0.09    c1.36,0,3.08,0.49,4.03-0.09c3.28-2.03,7.16-2.76,10.52-4.56c16.52-8.87,33.21-17.48,49.43-26.81c4.7-2.7,10.06-5.66,12.64-10.49    c1.48-2.76,3.13-5.18,5.17-7.54c8.26-9.56,15.05-20.08,22.75-30.01c0.94-1.22,0.91-2.54,0.01-3.8    c-3.78-5.22-7.38-10.56-11.4-15.62c-6.37-8.01-15.12-13.6-23.58-19.5c-8.65-6.04-17.23-12.16-25.81-18.27"></path>
		<path class="st5" d="M267.97,210.62c-3.73-2.22-7.75-3.91-10.99-6.98c-1.72-1.63-4.29-1.92-6.59-1.96    c-6.26-0.1-12.53-0.33-19.14,0.62c0,1.4,0.01,2.71,0,4.02c-0.03,1.86,0.88,2.86,2.74,2.72c3-0.23,5.95,0.11,9.02-0.62    c4.41-1.05,8.98-1.98,13.65-1.39c0.72,0.09,1.55-0.71,2.34-1.1"></path>
		<path class="st5" d="M260.55,412.96c-2.53-5.22-6.68-7.32-12.49-7.94c-13.66-1.46-27.34-1.4-41.03-1.43"></path>
		<path class="st5" d="M178.52,216.08c0.65,0.13,1.76,0.36,1.9,0.29c6.57-3.16,13.9-2.55,20.74-4.25c3.54-0.88,4.22-2.66,2.81-5.06    c-0.57-0.97-1.1-1.24-2.02-1.13c-8.04,0.98-16.42,0.93-22.66,7.42"></path>
		<path class="st5" d="M299.61,277.02c1.56,1.64,2.49,2.98,0.96,5.57c-1.06,1.8-0.5,4.58-0.56,6.93    c-0.23,9.89,0.07,19.79-0.28,29.69c-0.24,6.88,0.92,13.8,0.96,20.7c0.03,4.82-0.49,9.63,0.07,14.45c0.24,2.07,0.28,4.16,0.41,6.25    "></path>
		<path class="st5" d="M244.93,356.32c4.47-0.32,7.93,2.72,12.08,3.66c6.3,1.43,12,4.29,17.34,8.28c4.94,3.69,11.57,3.9,17.47,5.57    c1.37,0.39,2.7,1.36,4.28,0.84"></path>
		<path class="st5" d="M235.94,142.65c0.89-4.67,1.31-9.11-1.01-13.75c-1.51-3.01-3.59-4.53-6.42-4.89    c-2.88-0.37-5.8-0.33-8.63,1.37c-3.96,2.38-8.16,4.3-11.31,7.87c-1.33,1.51-2.11,2.58-0.89,4.79c0.92,1.68,1.54,3.63,2.36,5.45    c1.39,3.09,2.8,6.14,3.52,9.65c0.78,3.81,2.95,7.32,4.77,10.93"></path>
		<path class="st5" d="M202.07,159.67c-0.2-0.44-0.38-0.9-0.53-1.39c-1.54-4.66-4.79-8.61-5.52-13.67c-0.31-2.13-2.43-2.58-4.2-1.92    c-7.35,2.73-12.68,7.34-15.39,15.14c-1.83,5.27-1.49,11.47-6.09,15.69c-0.4,0.37-0.83,1.06-0.76,1.54    c1.35,9.17-1.39,18.21-0.83,27.35c0.02,0.39,0,0.78,0,1.17"></path>
		<path class="st5" d="M223.38,176.72c-1-3.71-4.06-4.99-6.9-6.51c-2.41-1.29-4.85-2.55-7.26-3.84c-0.27-0.14-0.53-0.29-0.77-0.45"></path>
		<path class="st5" d="M309.77,166.09c1.88,4.05,5.46,6.82,7.86,10.51c4.28,6.57,4.32,10.16,0.71,17.68    c-2.61-5.92-7.12-9.73-10.92-14.13"></path>
		<path class="st5" d="M246.1,282.49c-0.91,0.26-2.02-0.9-2.7,0.02c-4.65,6.3-11.44,6.86-18.39,7c-2.89,0.06-5.64,1.03-8.6,0.85    c-4.54-0.28-7.81-2.18-9.76-6.31"></path>
		<path class="st5" d="M275.39,142.26c1.17-0.91,2.43-1.73,3.49-2.76c1.11-1.07,1.66-2.54-0.38-3.06    c-7.43-1.89-13.85-6.72-21.49-7.7c-2.71-0.35-6.17-1.68-8.57,1.4"></path>
		<path class="st5" d="M241.41,281.32c-2.67,1.22-5.25-0.25-7.79-0.55c-2.58-0.31-4.92,0.04-6.99,1.07    c-1.45,0.72-2.99,1.37-4.36,1.33c-5.35-0.15-10.68-1.55-16.02,0.1"></path>
		<path class="st5" d="M329.69,401.24c-8.72,0.65-17.47,0.42-26.19,1.42c-2.15,0.25-4.33,1.85-6.62,0.54"></path>
		<path class="st5" d="M280.47,139.13c2.92,1.89,6.48,2.28,9.4,4.25c4.51,3.05,8.53,6.67,11.58,11.06c2.66,3.84,6.62,6.18,9.53,9.65    c0.18,0.22,1.12,0.29,1.52-0.35"></path>
		<path class="st5" d="M320.31,213.35c-6.79,5.61-4.57,12.66-1.64,18.6c1.79,3.62,1.44,6.86,1.04,9.89    c-1.02,7.82-3.76,15.4-3.35,23.47c0.03,0.51-0.48,1.04-0.74,1.56"></path>
		<path class="st5" d="M273.44,178.98c0.75,8.84,1.36,17.7,10.13,23.09c2.76,1.7,3.87,4.96,5.89,7.38"></path>
		<path class="st5" d="M262.5,221.16c-0.08-2.01-1.96-2.03-3.15-2.7c-3.37-1.89-7.16-2.63-10.92-3.1    c-5.13-0.65-11.32,3.87-13.27,9.32"></path>
		<path class="st5" d="M174.61,177.02c0.26,0.65,0.36,1.45,0.81,1.93c3.9,4.28,3.04,9.38,2.75,14.48    c-0.36,6.35-5.03,8.44-9.22,10.43c-1.38,10.26,2.43,19.66,4.1,29.41"></path>
		<path class="st5" d="M204.69,324.68c2.89,1.15,3.76,4.16,5.35,6.34c4.06,5.57,10.22,8.81,14.63,13.92    c0.3,0.35,1.01,0.84,1.89,0.89c6.98,0.39,11.53,5.56,16.18,9.58c3.16,2.73,7.37,5.79,8.82,9.27c2.07,4.98,6.81,7.55,8.6,12.33"></path>
		<path class="st5" d="M207.43,313.74c-1,1.77,0.38,4.05,0.92,4.52c4.15,3.56,5.55,9.27,9.7,12.57c3.87,3.07,6.92,6.69,9.67,10.66    c0.9,1.3,2.11,2.49,1.97,4.29"></path>
		<path class="st5" d="M262.67,221.23c-1.4-0.05-2.69,0.03-3.94,1.06c-5.24,4.3-11.06,5.19-17.28,3.29c-2.28-0.7-4.57-0.88-6.85,0"></path>
		<path class="st5" d="M317.97,232.1c-2.86,3.24-3.21,7.35-3.89,11.33c-0.76,4.44-1.75,8.72-5.07,12.13    c-2.22,2.29-4.52,3.84-7.84,2.71"></path>
		<path class="st5" d="M290.24,210.23c-0.73,2.62,2.09,3.99,2.11,6.64c0.04,4.81-0.8,9.66,0.23,14.45c0.54,2.5,3.05,4.49,1.95,7.42"></path>
		<path class="st5" d="M207.82,226.63c-5.13-8.98-18.89-7.17-22.27,2.34c4.61,3.35,13.26,3.64,18.31,0.32    c1.29-0.85,2.51-1.73,3.96-2.27"></path>
		<path class="st5" d="M310.55,264.13c-2.45,6.08-3.19,12.49-3.72,19.01c-2.32,0.62-2.95-2.88-5.27-2.22"></path>
		<path class="st5" d="M310.94,164.52c-0.81,1.48-2.22,1.17-3.52,1.16c-1.32,0-2.84,0.2-3.06,1.58c-0.59,3.74-3.57,3.17-5.93,3.46    c-5.21,0.66-10.16-1.21-15.23-1.91"></path>
		<path class="st5" d="M242.97,282.49c-1.61-2.91-4.21-4.58-6.96-6.36c-3.8-2.45-7.31-3.26-11.41-1.09    c-2.25,1.19-4.67,0.55-7.01,0.03c-4.18-0.93-10.51,3.65-11.33,8.2"></path>
		<path class="st5" d="M305.86,189.52c0.13,3.12,0.41,6.25,0.36,9.37c-0.07,4.33-1.31,8.24-5.04,10.94"></path>
		<path class="st5" d="M319.14,194.21c2.29,2.54,0.96,5.75,1.44,8.61c0.74,4.36-0.53,8.93,1.22,13.29c0.45,1.12,0.34,2.65,0.02,3.87    c-0.91,3.4-0.4,6.78,0.99,9.71c0.95,2.01,0.4,4.11,1.41,5.93"></path>
		<path class="st5" d="M232.43,167.65c1.68,3.45,4.41,5.78,7.81,7.43c3.4,1.66,6.77,3.38,10.16,5.07"></path>
		<path class="st5" d="M225,138.74c1.65,3.87,2.77,7.83,2.36,12.11c-0.27,2.77,0.32,5.49,0.77,8.2"></path>
		<path class="st5" d="M263.28,138.74c-5.25,5.23-11.91,6.48-18.75,3.52"></path>
		<path class="st5" d="M256.25,156.71c1.38,4.71,5.14,7.95,7.46,12.09c0.85,1.51,1.72,2.95,1.92,4.71"></path>
		<path class="st5" d="M209.49,132.36c-2.88,0.6-5.06,2.61-7.28,4.75c-2.69,2.6-5.57,5-9.23,5.33"></path>
		<path class="st5" d="M271.88,398.11c-0.39,0.52-0.78,1.05-1.17,1.56c-3.86,5.05-8.08,6.53-13.67,1.56"></path>
		<path class="st5" d="M304.3,166.87c-3.02-1.04-4.61-3.68-6.67-5.84c-2.27-2.37-4.32-5.22-8.18-5.1"></path>
		<path class="st5" d="M195.32,160.23c-3.85,1.57-4.67,5.06-5.48,8.59c-0.42,1.82-0.38,3.48-2.6,4.88c-2.97,1.88-3.7,5.61-3.2,9.18    c0.22,1.57,1.2,3.05,0.34,4.69"></path>
		<path class="st5" d="M239.46,152.02c0.21,5.98,3.77,10.22,7.41,14.47c2.68,3.13,3.07,7.31,4.67,10.94    c0.35,0.81-0.16,1.66-0.75,2.33"></path>
		<path class="st5" d="M291.8,194.99c4.92,4.25,8,9.5,8.79,16.02"></path>
		<path class="st5" d="M264.07,175.46c-3.65-1.82-7.38-3.5-10.89-5.54c-1.32-0.77-2.52-1.13-3.95-1.1"></path>
		<path class="st5" d="M233.99,125.46c4.44-2.26,7.49,1.31,10.88,2.85c2.36,1.08,4.28,3.2,6.29,4.97c3.29,2.88,7.77,3.21,11.34,5.45    "></path>
		<path class="st5" d="M183.6,162.18c-0.64,6.43-5.68,10.02-9.46,14.38c-0.57,0.65-2.26,0.33-3.43,0.46"></path>
		<path class="st5" d="M290.24,184.84c-0.32,4.04,1.69,7.9,0.21,12.18c-0.71,2.05,0.8,4.88,1.36,7.35c0.42,1.82,1.08,3.64-0.79,5.08    "></path>
		<path class="st5" d="M213.28,168.82c-1.79,3.33-3.59,5.99-8.18,6.45c-4.86,0.49-7.15,4.77-8.61,9.17"></path>
		<path class="st5" d="M176.37,200.07c1.58,2.7,0.43,5.45,0.25,8.21c-0.12,1.85-0.7,3.95,1.11,5.46"></path>
		<path class="st5" d="M282.03,405.54c-2.73,0.65-5.48,1.24-8.2,1.97c-1.95,0.52-3.74,1.34-3.52,3.89"></path>
		<path class="st5" d="M208.6,319.21c-2.88,1.1-4.48,3.31-4.63,6.25c-0.23,4.42-1.72,8.66-0.63,13.32c0.8,3.43-0.08,7.25-0.21,10.89    "></path>
		<path class="st5" d="M290.63,177.41c-1.57,0.25-3.16,0.2-4.74,0.48c-5.52,0.99-11.56,2.42-16.34-2.45    c-0.82-0.83-1.68-1.5-2.94-1.96c-2.83,0.69-2.5,2.89-2.15,5.1"></path>
		<path class="st5" d="M239.85,298.11c-4.15-0.86-8.03-3.19-12.5-2.34"></path>
		<path class="st5" d="M276.17,152.02c0.13,0.39,0.22,1.1,0.4,1.13c4.4,0.59,7.5,3.54,10.93,5.91"></path>
		<path class="st5" d="M264.85,370.77c-3.72-2.52-7.37-5.21-12.11-5.47"></path>
		<path class="st5" d="M280.86,330.93c0.94,4.1-0.67,7.86-1.56,11.72"></path>
		<path class="st5" d="M189.07,173.51c2.13,4.75,4.83,9.16,8.01,13.28"></path>
		<path class="st5" d="M274.22,158.27c-0.36,1.48,0.52,2.45,1.58,3.1c3.74,2.29,6.44,5.21,7.05,9.79c0.35,2.63,3.12,3.7,4.26,5.86"></path>
		<path class="st5" d="M299.61,237.96c-0.38,1.04-0.91,2.2,0.02,3.1c2.63,2.54,1.64,5.16,0.37,7.84"></path>
		<path class="st5" d="M316.02,225.46c-2.6,2.08-5.08,4.35-7.85,6.2c-2.73,1.82-3.69,4-2.7,7.08"></path>
		<path class="st5" d="M235.55,141.09c-2.94-2.52-5.94-4.43-10.2-3.06c-1.16,0.38-2.82-0.79-4.26-1.24"></path>
		<path class="st5" d="M205.47,365.3c0.01,3.7,2.26,6.72,3.12,10.16"></path>
		<path class="st5" d="M217.97,151.24c1.8,2.69,3.66,5.23,7,6.34c0.98,0.33,1.59,0.01,2.37-0.09"></path>
		<path class="st5" d="M234.38,159.05c-0.65,7.34-5.45,12.24-10.16,17.19"></path>
		<path class="st5" d="M265.63,425.46c0.22,3.12-0.46,6.28,0.39,9.37"></path>
		<path class="st5" d="M304.69,213.74c-1.15,3.45,0.61,7.08-0.74,10.56c-0.81,2.11-0.97,4.27-3.5,5.57    c-2.13,1.1-3.71,3.26-5.53,4.96"></path>
		<path class="st5" d="M349.22,399.68c-2.86,0.13-5.73,0.26-8.59,0.39"></path>
		<path class="st5" d="M224.22,296.16c-2.86,0.54-5.68,1.19-8.2,2.73"></path>
		<path class="st5" d="M264.46,455.14c0.68,2.76-1.97,5.03-1.17,7.81"></path>
		<path class="st5" d="M283.6,148.51c1.04,1.17,2.22,2.25,3.09,3.54c1.34,1.98,3.61,3.92,1.2,6.61c-1.08,1.2,0.47,2.35,0.01,3.52"></path>
		<path class="st5" d="M314.85,201.24c0.46,2.56-0.74,4.75-1.56,7.03"></path>
		<path class="st5" d="M308.6,257.1c0.39,0.52,1.13,1.05,1.12,1.56c-0.07,5.06,4.04,7.01,7.08,9.77"></path>
		<path class="st5" d="M194.53,151.24c-4.39-0.09-5.74,3.82-8.2,6.25"></path>
		<path class="st5" d="M280.47,351.24c0.16,2.02-0.96,3.67-1.56,5.47"></path>
		<path class="st5" d="M296.88,177.02c-0.02,2.1-0.48,4.41,2.73,4.71c1.67,0.15,1.73,2.59,3.52,2.71"></path>
		<path class="st5" d="M185.94,188.74c-2.19-0.97-4.18-2.41-6.64-2.73"></path>
		<path class="st5" d="M264.07,145.77c-0.44,2.88,2.09,5.01,1.95,7.81"></path>
		<path class="st5" d="M308.6,216.08c-0.82,1.27-1.61,2.56-3.12,3.12"></path>
		<path class="st5" d="M201.79,146.13c-1.39,2.69,2.25,4.99,4.73,7.38"></path>
	</g>
</g>
</svg>